<svg xmlns="http://www.w3.org/2000/svg" width="48" height="48"><g fill="none" fill-rule="evenodd"><path stroke="#B0B0B0" stroke-linecap="round" d="M3.475 38.825H47.5" opacity=".4"/><path stroke="#4A4A4A" stroke-dasharray="79.49999570846558,174.8999905586243" stroke-linecap="round" d="M10 12.542c0-.547.44-.99.997-.99h26.006c.55 0 .997.449.997.99v3.285a.99.99 0 0 1-.997.99H10.997a.997.997 0 0 1-.997-.99v-3.285z"/><path stroke="#4A4A4A" stroke-dasharray="79.49999570846558,174.8999905586243" stroke-linecap="round" d="M11.273 16.818h25.454v20.09a.642.642 0 0 1-.642.643h-24.17a.646.646 0 0 1-.642-.643v-20.09z"/><path fill="#AADB1D" d="m21.455 23.058.848-.894.848.894.849-.894.848.894.849-.894.848.894v-6.24h-5.09zm0-11.506h5.091v5.266h-5.091z"/><path fill="#484848" d="M15.6 30.912a.563.563 0 0 1-.446-.221.6.6 0 0 1-.125-.37c0-.325.256-.59.572-.59.315 0 .571.265.571.59a.581.581 0 0 1-.571.591m0-2.136c-.827 0-1.497.692-1.497 1.546 0 .313.094.601.25.845l1.247 1.73 1.25-1.73a1.57 1.57 0 0 0 .246-.845c0-.854-.67-1.546-1.496-1.546m2.625.412a.41.41 0 0 0 .407.412H22.6a.414.414 0 0 0 .407-.412.41.41 0 0 0-.407-.412h-3.966a.414.414 0 0 0-.407.412zm0 1.648c0 .228.193.412.411.412H21.4a.416.416 0 0 0 .411-.412.417.417 0 0 0-.411-.412h-2.763a.416.416 0 0 0-.411.412zm0 1.649c0 .227.192.412.411.412h3.161a.416.416 0 0 0 .411-.412.417.417 0 0 0-.41-.413h-3.162a.416.416 0 0 0-.411.413z"/><path stroke="#B0B0B0" stroke-linecap="round" d="M2.34 38.825H.07" opacity=".4"/></g></svg>