<svg xmlns="http://www.w3.org/2000/svg" width="84" height="84"><g fill="none" fill-rule="evenodd" transform="translate(8 26)"><ellipse cx="23.352" cy="29.637" stroke="#4A4A4A" stroke-linecap="round" stroke-width="1.185" rx="12.748" ry="12.586"/><path fill="#AADB1D" d="M45.114 30.043h7.467a.79.79 0 0 1 .79.79v4.104a.79.79 0 0 1-.79.79h-7.467a.79.79 0 0 1-.79-.79v-4.104a.79.79 0 0 1 .79-.79zm10.692 0h7.467a.79.79 0 0 1 .79.79v4.104a.79.79 0 0 1-.79.79h-7.467a.79.79 0 0 1-.79-.79v-4.104a.79.79 0 0 1 .79-.79z"/><path stroke="#4A4A4A" stroke-linecap="round" stroke-linejoin="round" stroke-width="1.185" d="M42.68 5.773v8.804l3.682-3.887 3.72 3.926V.812"/><path stroke="#4A4A4A" stroke-linecap="round" stroke-width="1.185" d="m20.473 30.855 10.692-4.06m-8.499 5.319v-7.417"/><path stroke="#DCDCDC" stroke-linecap="round" stroke-width=".79" d="M9.781 20.733H2.38m5.022 3.909H0m12.983-7.036H4.76"/><path stroke="#4A4A4A" stroke-linecap="round" stroke-width="1.185" d="M22.94 12.725V1.818c.05-.715.209-1.173.475-1.376.15-.214.597-.361 1.344-.442H67.18c.538.05.943.198 1.212.442s.47.703.606 1.376V38.78c-.068.72-.187 1.176-.359 1.366-.171.19-.658.34-1.46.452H39.91"/><path stroke="#ED195B" stroke-linecap="square" stroke-width="2" d="M59.176 4.365h3.841"/></g></svg>