<svg xmlns="http://www.w3.org/2000/svg" xmlns:xlink="http://www.w3.org/1999/xlink" width="48" height="48"><defs><path id="a" d="M0 0h28v8H0z"/></defs><g fill="none" fill-rule="evenodd"><g transform="translate(10 11)"><mask id="b" fill="#fff"><use xlink:href="#a"/></mask><path stroke="#4A4A4A" stroke-dasharray="79.49999570846558,174.8999905586243" stroke-linecap="round" d="M.5 3v-.38C.5 1.45 1.456.5 2.628.5h21.744c1.175 0 2.128.94 2.128 2.12v8.26c0 1.17-.956 2.12-2.128 2.12H2.628A2.124 2.124 0 0 1 .5 10.885V7" mask="url(#b)"/></g><path stroke="#4A4A4A" d="M11.5 36.5v-8h24v8h3.39a1.62 1.62 0 0 0 1.61-1.618V21.118a1.61 1.61 0 0 0-1.61-1.618H8.11a1.62 1.62 0 0 0-1.61 1.618v13.764c0 .898.72 1.618 1.61 1.618h3.39z"/><path fill="#AADB1D" d="M37.933 21c.59 0 1.067.48 1.067 1.06v3.939L11.595 26c-.831 0-1.515.637-1.588 1.449l-.007.145-.001 7.398-.932.017A1.036 1.036 0 0 1 8 33.972V22.054C8 21.472 8.475 21 9.067 21h28.866z"/><path stroke="#4A4A4A" stroke-linecap="round" d="M11.5 28.5h24v12.948a1.06 1.06 0 0 1-1.062 1.052H12.562a1.054 1.054 0 0 1-1.062-1.052V28.5z"/><path fill="#484848" stroke="#484848" stroke-width=".53" d="M17.735 34.265h-.47v5.47h.47v-5.47zm2 0h-.47v5.47h.47v-5.47zm-4 0h-1.47v5.47h1.47v-5.47zm7 0h-1.47v5.47h1.47v-5.47z"/><path stroke="#4A4A4A" stroke-linecap="round" stroke-linejoin="round" d="M25.5 37.5h7m-7 2h4"/><circle cx="36" cy="23" r="1" fill="#4A4A4A"/><circle cx="9.5" cy="22.5" r="1" fill="#4A4A4A"/><circle cx="11.5" cy="22.5" r="1" fill="#4A4A4A"/><circle cx="13.5" cy="22.5" r="1" fill="#4A4A4A"/><path stroke="#D3D2D3" stroke-linecap="round" d="M38 39.5h8" opacity=".353"/><path stroke="#4A4A4A" stroke-linecap="round" d="M10 28.5h28"/><path stroke="#D3D2D3" stroke-linecap="round" d="M2 39.5h8" opacity=".353"/><g stroke="#DFDFDF" stroke-linecap="round" stroke-linejoin="round"><path stroke-width=".536" d="M39 13h4m-7-3V6"/><path stroke-width=".53" d="M38 11.121 42 7"/></g></g></svg>