<svg xmlns="http://www.w3.org/2000/svg" width="84" height="84"><g fill="none" fill-rule="evenodd"><path stroke="#3E4330" stroke-width="1.5" d="M14 55V31a2 2 0 0 1 2-2h50"/><rect width="52.5" height="26.5" x="16.75" y="31.75" stroke="#3E4330" stroke-width="1.5" rx="2"/><path fill="#AADB1D" d="M30 45c0 2.577.75 4.98 2.044 7H21V38h11.043A12.94 12.94 0 0 0 30 45zm35-7v14H53.956A12.94 12.94 0 0 0 56 45c0-2.577-.75-4.979-2.043-7H65z"/><circle cx="43" cy="45" r="10" stroke="#3E4330" stroke-width="1.5"/><path stroke="#ED195B" stroke-width="1.5" d="M40.025 51.718a7.943 7.943 0 0 0 5.573.005"/><path fill="#3E4330" d="M46 46.586c0 1.328-.87 2.366-2.644 2.547v1.099H42.21v-1.087c-1.267-.097-2.185-.592-2.849-1.256l.93-1.303c.458.47 1.11.88 1.92 1.026v-1.896c-1.244-.301-2.596-.784-2.596-2.414 0-1.232.977-2.27 2.595-2.427v-1.123h1.147V40.9a4.192 4.192 0 0 1 2.45 1.075l-.953 1.255c-.422-.398-.954-.652-1.497-.784v1.69c1.256.326 2.644.809 2.644 2.45zm-4.624-3.43c0 .375.386.58.942.725v-1.533c-.616.06-.942.374-.942.809zm1.871 4.492c.689-.097 1.002-.47 1.002-.87 0-.446-.422-.651-1.002-.82v1.69z"/><path fill="#D0D0D0" d="M21 59h44v2H21z"/></g></svg>