<svg xmlns="http://www.w3.org/2000/svg" width="48" height="48"><g fill="none" transform="translate(3 12)"><path fill="#F8D032" d="m36.225 25.705-5.543.004 5.543.006z"/><path d="M25.22 18.222h7.576v1.425H25.22zm0-2.851h4.933v1.425H25.22z" fill="#FFF"/><path fill="#B0B0B0" d="M4.193 5.772h33.96v3.875H4.193z" opacity=".2"/><path fill="#AADB1D" stroke="#484848" d="M25.157 5.558c0 2.362 1.877 4.276 4.193 4.276 2.315 0 4.193-1.914 4.193-4.276"/><path fill="#FFF" stroke="#484848" d="M16.771 5.558c0 2.362 1.877 4.276 4.193 4.276s4.193-1.914 4.193-4.276"/><path fill="#AADB1D" stroke="#484848" d="M8.386 5.558c0 2.362 1.877 4.276 4.192 4.276 2.316 0 4.193-1.914 4.193-4.276"/><path fill="#FFF" stroke="#484848" d="M7.123 5.558H0C0 7.92 1.877 9.834 4.193 9.834c2.315 0 4.193-1.914 4.193-4.276"/><path fill="#FFF" d="M26.624 5.772H0L1.887.214H40.04l1.887 5.558"/><path fill="#AADB1D" d="M2.096 0h6.919l-.63 5.345H.21zm37.945 0h-7.127l.943 5.345h7.862zM17.4 0h7.023l.42 5.345H16.98z"/><path fill="#FFF" stroke="#484848" d="M33.543 5.558c0 2.362 1.877 4.276 4.193 4.276 2.315 0 4.193-1.914 4.193-4.276H28.72"/><path stroke="#484848" d="M26.624 5.558H0L1.887 0H40.04l1.887 5.558M39.4 9.526v20.99M2.2 13.724v16.389"/><path fill="#AADB1D" d="M27.252 28.417h7.053V14.854h-7.053z"/><path fill="#B3B3B3" d="M27.252 15.823h7.053v-.969h-7.053z" opacity=".4"/><ellipse cx="30.779" cy="19.052" fill="#FFF" rx="2.565" ry="2.583"/><ellipse cx="30.779" cy="19.052" stroke="#484848" rx="2.565" ry="2.583"/><path stroke="#484848" d="M26.29 28.417V13.885h8.977v13.349m-28.855-.432h15.39V13.885H6.412z"/><path stroke="#484848" d="M25.008 30.354v-1.937H36.55v1.937"/><path stroke="#DFDFDF" d="M6.573 30.396H41.84m-37.512 0h1.283m-5.131 0h2.886"/><path stroke="#484848" d="m13.948 14.047-.162 12.755"/><path fill="#B3B3B3" d="M5.13 28.74h17.954v-1.938H5.13z" opacity=".4"/></g></svg>