<svg xmlns="http://www.w3.org/2000/svg" xmlns:xlink="http://www.w3.org/1999/xlink" width="84" height="84"><defs><filter id="a" width="105.6%" height="117.9%" x="-2.8%" y="-4.5%" filterUnits="objectBoundingBox"><feOffset dy="7" in="SourceAlpha" result="shadowOffsetOuter1"/><feGaussianBlur in="shadowOffsetOuter1" result="shadowBlurOuter1" stdDeviation="3.5"/><feColorMatrix in="shadowBlurOuter1" values="0 0 0 0 0.156862745 0 0 0 0 0.180392157 0 0 0 0 0.341176471 0 0 0 0.08 0"/></filter><rect id="b" width="500" height="156" x="800" y="1064" rx="4"/></defs><g fill="none" fill-rule="evenodd"><path fill="#FFF" d="M-832-1100H728v3361H-832z"/><path fill="#F5F5F5" d="M-832-508H728v900H-832z"/><g transform="translate(-832 -1100)"><use fill="#000" filter="url(#a)" xlink:href="#b"/><use fill="#FFF" xlink:href="#b"/></g><g transform="translate(20 14)"><path fill="#AADB1D" d="M23 0c5.74 5.796 13.074 9.189 22 10.179V32.57C45 45.338 27.863 57 23 57z"/><path fill="#FFF" d="M23 52c3.91 0 18-10.272 18-20V13c-7.34-.638-13.34-3.305-18-8-5.308 4.695-11.642 7.362-19 8v19c0 4.686 3.27 9.498 7.207 13.228C15.444 49.24 20.455 52 23 52z"/><path fill="#FFF" stroke="#3E4330" stroke-width="1.5" d="M41 32V13c-7.34-.638-13.34-3.305-18-8-5.308 4.695-11.642 7.362-19 8v19c0 4.686 3.27 9.498 7.207 13.228C15.444 49.24 20.455 52 23 52c2.192 0 7.586-3.23 11.901-7.782"/><path fill="#ED195B" d="M20 44h6v2h-6z"/><path stroke="#3E4330" stroke-width="1.5" d="M0 28.165v4.406C0 45.338 17.137 57 23 57c4.863 0 22-11.662 22-24.429V10.18C36.074 9.189 28.74 5.796 23 0 16.616 5.796 8.95 9.189 0 10.179v7.814"/><circle cx="23" cy="24" r="6" stroke="#3E4330" stroke-width="1.5"/><path stroke="#D0D0D0" stroke-linecap="round" stroke-width="2.5" d="M30.877 38.134c-2.11-1.423-4.732-2.502-7.873-2.502-3.137 0-5.764 1.078-7.874 2.497"/><path stroke="#3E4330" stroke-linecap="round" stroke-width="1.5" d="M32 37c-2.276-2-5.276-3-9-3s-6.724 1-9 3"/></g></g></svg>