<svg xmlns="http://www.w3.org/2000/svg" xmlns:xlink="http://www.w3.org/1999/xlink" width="84" height="84"><defs><filter id="a" width="105.6%" height="117.9%" x="-2.8%" y="-4.5%" filterUnits="objectBoundingBox"><feOffset dy="7" in="SourceAlpha" result="shadowOffsetOuter1"/><feGaussianBlur in="shadowOffsetOuter1" result="shadowBlurOuter1" stdDeviation="3.5"/><feColorMatrix in="shadowBlurOuter1" values="0 0 0 0 0.156862745 0 0 0 0 0.180392157 0 0 0 0 0.341176471 0 0 0 0.08 0"/></filter><path id="b" d="M4 0h492a4 4 0 0 1 4 4v148a4 4 0 0 1-4 4H4a4 4 0 0 1-4-4V4a4 4 0 0 1 4-4z"/></defs><g fill="none" fill-rule="evenodd"><path fill="#FFF" d="M-293-1290h1560v3361H-293z"/><path fill="#F5F5F5" d="M-293-698h1560v900H-293z"/><g transform="translate(-33 -30)"><use fill="#000" filter="url(#a)" xlink:href="#b"/><use fill="#FFF" xlink:href="#b"/></g><g transform="translate(19 14)"><path stroke="#AADB1D" stroke-linecap="round" stroke-width="2" d="M10.84 43C7.742 43.721 2 45.632 2 47.555 2 50.565 11.578 54 22.974 54 34.371 54 44 50.416 44 47.555c0-1.922-3.569-3.137-8.664-4.555"/><path stroke="#3E4330" stroke-linecap="round" stroke-width="1.5" d="M10.222 41C3.998 42.477 0 44.968 0 47.25 0 52.325 10.297 56 23 56s23-3.675 23-8.75c0-2.275-3.978-4.761-10.222-6.25"/><path stroke="#D0D0D0" stroke-linecap="round" stroke-width="2" d="M19.63 44c-1.587.394-2.63 1.058-2.63 1.811C17 47.021 19.686 48 23 48s6-.98 6-2.189c0-.751-1.038-1.414-2.619-1.808"/><path stroke="#3E4330" stroke-width="1.5" d="M23 45c.984 0 4.615-6.178 8-13 3.576-6.568 7-13.607 7-17 0-8.466-6.716-15-15-15C14.716 0 8 6.534 8 15c0 3.476 3.366 10.325 7 17 3.358 6.649 7.035 13 8 13z"/><circle cx="23" cy="15" r="5" stroke="#3E4330" stroke-width="1.5"/><path stroke="#ED195B" stroke-width="1.5" d="M21 15a2 2 0 1 0 4 0"/></g></g></svg>